<svg xmlns="http://www.w3.org/2000/svg" viewBox="0 0 1600 900" width="1600" height="900" role="img" aria-label="C1 constelacion de nodos">
<title>C1 constelacion de nodos</title>
<g fill="none" stroke-linecap="round" stroke-linejoin="round" stroke-width="3.2">
<line x1="250.0" y1="300.0" x2="430.0" y2="205.0" stroke="#f0debb" stroke-width="3.2" opacity="0.5"/>
<line x1="430.0" y1="205.0" x2="612.0" y2="272.0" stroke="#f0debb" stroke-width="3.2" opacity="0.5"/>
<line x1="612.0" y1="272.0" x2="792.0" y2="212.0" stroke="#f0debb" stroke-width="3.2" opacity="0.5"/>
<line x1="792.0" y1="212.0" x2="898.0" y2="382.0" stroke="#f0debb" stroke-width="3.2" opacity="0.5"/>
<line x1="898.0" y1="382.0" x2="760.0" y2="470.0" stroke="#f0debb" stroke-width="3.2" opacity="0.5"/>
<line x1="760.0" y1="470.0" x2="560.0" y2="432.0" stroke="#f0debb" stroke-width="3.2" opacity="0.5"/>
<line x1="560.0" y1="432.0" x2="378.0" y2="398.0" stroke="#f0debb" stroke-width="3.2" opacity="0.5"/>
<line x1="378.0" y1="398.0" x2="250.0" y2="300.0" stroke="#f0debb" stroke-width="3.2" opacity="0.5"/>
<line x1="612.0" y1="272.0" x2="560.0" y2="432.0" stroke="#f0debb" stroke-width="3.2" opacity="0.5"/>
<line x1="430.0" y1="205.0" x2="378.0" y2="398.0" stroke="#f0debb" stroke-width="3.2" opacity="0.5"/>
<line x1="760.0" y1="470.0" x2="834.0" y2="616.0" stroke="#f0debb" stroke-width="3.2" opacity="0.5"/>
<line x1="834.0" y1="616.0" x2="642.0" y2="704.0" stroke="#f0debb" stroke-width="3.2" opacity="0.5"/>
<line x1="642.0" y1="704.0" x2="432.0" y2="652.0" stroke="#f0debb" stroke-width="3.2" opacity="0.5"/>
<line x1="432.0" y1="652.0" x2="252.0" y2="548.0" stroke="#f0debb" stroke-width="3.2" opacity="0.5"/>
<line x1="252.0" y1="548.0" x2="378.0" y2="398.0" stroke="#f0debb" stroke-width="3.2" opacity="0.5"/>
<line x1="432.0" y1="652.0" x2="560.0" y2="432.0" stroke="#f0debb" stroke-width="3.2" opacity="0.5"/>
<line x1="642.0" y1="704.0" x2="560.0" y2="432.0" stroke="#f0debb" stroke-width="3.2" opacity="0.5"/>
<line x1="898.0" y1="382.0" x2="834.0" y2="616.0" stroke="#f0debb" stroke-width="3.2" opacity="0.5"/>
<circle cx="250.0" cy="300.0" r="10.0" stroke="#f0debb" stroke-width="3.2" opacity="0.9" fill="none" fill-opacity="1"/>
<circle cx="430.0" cy="205.0" r="10.0" stroke="#f0debb" stroke-width="3.2" opacity="0.9" fill="none" fill-opacity="1"/>
<circle cx="612.0" cy="272.0" r="13.0" stroke="#59a87d" stroke-width="3.2" opacity="1" fill="#59a87d" fill-opacity="1"/>
<circle cx="792.0" cy="212.0" r="10.0" stroke="#f0debb" stroke-width="3.2" opacity="0.9" fill="none" fill-opacity="1"/>
<circle cx="898.0" cy="382.0" r="15.0" stroke="#59a87d" stroke-width="3.2" opacity="0.9" fill="none" fill-opacity="1"/>
<circle cx="760.0" cy="470.0" r="10.0" stroke="#f0debb" stroke-width="3.2" opacity="0.9" fill="none" fill-opacity="1"/>
<circle cx="560.0" cy="432.0" r="13.0" stroke="#59a87d" stroke-width="3.2" opacity="1" fill="#59a87d" fill-opacity="1"/>
<circle cx="378.0" cy="398.0" r="10.0" stroke="#f0debb" stroke-width="3.2" opacity="0.9" fill="none" fill-opacity="1"/>
<circle cx="252.0" cy="548.0" r="15.0" stroke="#59a87d" stroke-width="3.2" opacity="0.9" fill="none" fill-opacity="1"/>
<circle cx="432.0" cy="652.0" r="13.0" stroke="#59a87d" stroke-width="3.2" opacity="1" fill="#59a87d" fill-opacity="1"/>
<circle cx="642.0" cy="704.0" r="10.0" stroke="#f0debb" stroke-width="3.2" opacity="0.9" fill="none" fill-opacity="1"/>
<circle cx="834.0" cy="616.0" r="10.0" stroke="#f0debb" stroke-width="3.2" opacity="0.9" fill="none" fill-opacity="1"/>
<circle cx="560.0" cy="432.0" r="40.0" stroke="#59a87d" stroke-width="3.2" opacity="0.35" fill="none" fill-opacity="1"/>
</g>
</svg>
