<svg xmlns="http://www.w3.org/2000/svg" viewBox="0 0 1600 900" width="1600" height="900" role="img" aria-label="C4 ocho racks uno roto">
<title>C4 ocho racks uno roto</title>
<g fill="none" stroke-linecap="round" stroke-linejoin="round" stroke-width="3.2">
<rect x="150.0" y="255.0" width="74.0" height="392.0" rx="8" stroke="#59a87d" stroke-width="3.2" opacity="1" fill="none" fill-opacity="0"/>
<line x1="163.0" y1="333.4" x2="211.0" y2="333.4" stroke="#59a87d" stroke-width="2.4" opacity="0.55"/>
<line x1="163.0" y1="411.8" x2="211.0" y2="411.8" stroke="#59a87d" stroke-width="2.4" opacity="0.55"/>
<line x1="163.0" y1="490.2" x2="211.0" y2="490.2" stroke="#59a87d" stroke-width="2.4" opacity="0.55"/>
<line x1="163.0" y1="568.6" x2="211.0" y2="568.6" stroke="#59a87d" stroke-width="2.4" opacity="0.55"/>
<circle cx="187.0" cy="690.0" r="6.0" stroke="#59a87d" stroke-width="3.2" opacity="0.7" fill="#59a87d" fill-opacity="1"/>
<rect x="268.0" y="255.0" width="74.0" height="392.0" rx="8" stroke="#59a87d" stroke-width="3.2" opacity="1" fill="none" fill-opacity="0"/>
<line x1="281.0" y1="333.4" x2="329.0" y2="333.4" stroke="#59a87d" stroke-width="2.4" opacity="0.55"/>
<line x1="281.0" y1="411.8" x2="329.0" y2="411.8" stroke="#59a87d" stroke-width="2.4" opacity="0.55"/>
<line x1="281.0" y1="490.2" x2="329.0" y2="490.2" stroke="#59a87d" stroke-width="2.4" opacity="0.55"/>
<line x1="281.0" y1="568.6" x2="329.0" y2="568.6" stroke="#59a87d" stroke-width="2.4" opacity="0.55"/>
<circle cx="305.0" cy="690.0" r="6.0" stroke="#59a87d" stroke-width="3.2" opacity="0.7" fill="#59a87d" fill-opacity="1"/>
<rect x="386.0" y="255.0" width="74.0" height="392.0" rx="8" stroke="#59a87d" stroke-width="3.2" opacity="1" fill="none" fill-opacity="0"/>
<line x1="399.0" y1="333.4" x2="447.0" y2="333.4" stroke="#59a87d" stroke-width="2.4" opacity="0.55"/>
<line x1="399.0" y1="411.8" x2="447.0" y2="411.8" stroke="#59a87d" stroke-width="2.4" opacity="0.55"/>
<line x1="399.0" y1="490.2" x2="447.0" y2="490.2" stroke="#59a87d" stroke-width="2.4" opacity="0.55"/>
<line x1="399.0" y1="568.6" x2="447.0" y2="568.6" stroke="#59a87d" stroke-width="2.4" opacity="0.55"/>
<circle cx="423.0" cy="690.0" r="6.0" stroke="#59a87d" stroke-width="3.2" opacity="0.7" fill="#59a87d" fill-opacity="1"/>
<rect x="504.0" y="255.0" width="74.0" height="392.0" rx="8" stroke="#59a87d" stroke-width="3.2" opacity="1" fill="none" fill-opacity="0"/>
<line x1="517.0" y1="333.4" x2="565.0" y2="333.4" stroke="#59a87d" stroke-width="2.4" opacity="0.55"/>
<line x1="517.0" y1="411.8" x2="565.0" y2="411.8" stroke="#59a87d" stroke-width="2.4" opacity="0.55"/>
<line x1="517.0" y1="490.2" x2="565.0" y2="490.2" stroke="#59a87d" stroke-width="2.4" opacity="0.55"/>
<line x1="517.0" y1="568.6" x2="565.0" y2="568.6" stroke="#59a87d" stroke-width="2.4" opacity="0.55"/>
<circle cx="541.0" cy="690.0" r="6.0" stroke="#59a87d" stroke-width="3.2" opacity="0.7" fill="#59a87d" fill-opacity="1"/>
<rect x="622.0" y="255.0" width="74.0" height="392.0" rx="8" stroke="#59a87d" stroke-width="3.2" opacity="1" fill="none" fill-opacity="0"/>
<line x1="635.0" y1="333.4" x2="683.0" y2="333.4" stroke="#59a87d" stroke-width="2.4" opacity="0.55"/>
<line x1="635.0" y1="411.8" x2="683.0" y2="411.8" stroke="#59a87d" stroke-width="2.4" opacity="0.55"/>
<line x1="635.0" y1="490.2" x2="683.0" y2="490.2" stroke="#59a87d" stroke-width="2.4" opacity="0.55"/>
<line x1="635.0" y1="568.6" x2="683.0" y2="568.6" stroke="#59a87d" stroke-width="2.4" opacity="0.55"/>
<circle cx="659.0" cy="690.0" r="6.0" stroke="#59a87d" stroke-width="3.2" opacity="0.7" fill="#59a87d" fill-opacity="1"/>
<rect x="740.0" y="255.0" width="74.0" height="392.0" rx="8" stroke="#59a87d" stroke-width="3.2" opacity="1" fill="none" fill-opacity="0"/>
<line x1="753.0" y1="333.4" x2="801.0" y2="333.4" stroke="#59a87d" stroke-width="2.4" opacity="0.55"/>
<line x1="753.0" y1="411.8" x2="801.0" y2="411.8" stroke="#59a87d" stroke-width="2.4" opacity="0.55"/>
<line x1="753.0" y1="490.2" x2="801.0" y2="490.2" stroke="#59a87d" stroke-width="2.4" opacity="0.55"/>
<line x1="753.0" y1="568.6" x2="801.0" y2="568.6" stroke="#59a87d" stroke-width="2.4" opacity="0.55"/>
<circle cx="777.0" cy="690.0" r="6.0" stroke="#59a87d" stroke-width="3.2" opacity="0.7" fill="#59a87d" fill-opacity="1"/>
<rect x="858.0" y="255.0" width="74.0" height="392.0" rx="8" stroke="#59a87d" stroke-width="3.2" opacity="1" fill="none" fill-opacity="0"/>
<line x1="871.0" y1="333.4" x2="919.0" y2="333.4" stroke="#59a87d" stroke-width="2.4" opacity="0.55"/>
<line x1="871.0" y1="411.8" x2="919.0" y2="411.8" stroke="#59a87d" stroke-width="2.4" opacity="0.55"/>
<line x1="871.0" y1="490.2" x2="919.0" y2="490.2" stroke="#59a87d" stroke-width="2.4" opacity="0.55"/>
<line x1="871.0" y1="568.6" x2="919.0" y2="568.6" stroke="#59a87d" stroke-width="2.4" opacity="0.55"/>
<circle cx="895.0" cy="690.0" r="6.0" stroke="#59a87d" stroke-width="3.2" opacity="0.7" fill="#59a87d" fill-opacity="1"/>
<rect x="976.0" y="255.0" width="74.0" height="392.0" rx="8" stroke="#8c2d4a" stroke-width="3.2" opacity="1" fill="none" fill-opacity="0" stroke-dasharray="16 14"/>
<line x1="989.0" y1="333.4" x2="1037.0" y2="333.4" stroke="#8c2d4a" stroke-width="2.4" opacity="0.9" stroke-dasharray="16 14"/>
<line x1="989.0" y1="411.8" x2="1037.0" y2="411.8" stroke="#8c2d4a" stroke-width="2.4" opacity="0.9" stroke-dasharray="16 14"/>
<line x1="989.0" y1="490.2" x2="1037.0" y2="490.2" stroke="#8c2d4a" stroke-width="2.4" opacity="0.9" stroke-dasharray="16 14"/>
<line x1="989.0" y1="568.6" x2="1037.0" y2="568.6" stroke="#8c2d4a" stroke-width="2.4" opacity="0.9" stroke-dasharray="16 14"/>
<circle cx="1013.0" cy="690.0" r="6.0" stroke="#8c2d4a" stroke-width="3.2" opacity="1" fill="#8c2d4a" fill-opacity="1"/>
<line x1="130.0" y1="726.0" x2="1082.0" y2="726.0" stroke="#f0debb" stroke-width="3.2" opacity="0.28"/>
</g>
</svg>
