<svg xmlns="http://www.w3.org/2000/svg" viewBox="0 0 1600 900" width="1600" height="900" role="img" aria-label="Engranajes y archivo con manejo de excepciones">
<title>Engranajes y archivo con manejo de excepciones</title>
<g fill="none" stroke-linecap="round" stroke-linejoin="round" stroke-width="3.2">
<circle cx="520.0" cy="450.0" r="120.0" stroke="#f0debb" stroke-width="3.2" opacity="0.85" fill="none"/>
<circle cx="520.0" cy="450.0" r="40.0" stroke="#f0debb" stroke-width="2.4" opacity="0.5" fill="none"/>
<line x1="520.0" y1="330.0" x2="520.0" y2="300.0" stroke="#f0debb" stroke-width="6.0" opacity="0.7"/>
<line x1="520.0" y1="570.0" x2="520.0" y2="600.0" stroke="#f0debb" stroke-width="6.0" opacity="0.7"/>
<line x1="400.0" y1="450.0" x2="370.0" y2="450.0" stroke="#f0debb" stroke-width="6.0" opacity="0.7"/>
<line x1="640.0" y1="450.0" x2="670.0" y2="450.0" stroke="#f0debb" stroke-width="6.0" opacity="0.7"/>
<line x1="435.0" y1="365.0" x2="414.0" y2="344.0" stroke="#f0debb" stroke-width="6.0" opacity="0.7"/>
<line x1="605.0" y1="535.0" x2="626.0" y2="556.0" stroke="#f0debb" stroke-width="6.0" opacity="0.7"/>
<line x1="605.0" y1="365.0" x2="626.0" y2="344.0" stroke="#f0debb" stroke-width="6.0" opacity="0.7"/>
<line x1="435.0" y1="535.0" x2="414.0" y2="556.0" stroke="#f0debb" stroke-width="6.0" opacity="0.7"/>
<circle cx="800.0" cy="560.0" r="70.0" stroke="#59a87d" stroke-width="3.2" opacity="0.9" fill="#59a87d" fill-opacity="0.1"/>
<circle cx="800.0" cy="560.0" r="24.0" stroke="#59a87d" stroke-width="2.2" opacity="0.5" fill="none"/>
<line x1="800.0" y1="480.0" x2="800.0" y2="460.0" stroke="#59a87d" stroke-width="5.0" opacity="0.6"/>
<line x1="800.0" y1="640.0" x2="800.0" y2="660.0" stroke="#59a87d" stroke-width="5.0" opacity="0.6"/>
<line x1="720.0" y1="560.0" x2="700.0" y2="560.0" stroke="#59a87d" stroke-width="5.0" opacity="0.6"/>
<line x1="880.0" y1="560.0" x2="900.0" y2="560.0" stroke="#59a87d" stroke-width="5.0" opacity="0.6"/>
<rect x="1000.0" y="260.0" width="200.0" height="260.0" rx="10" stroke="#f0debb" stroke-width="3.2" opacity="0.9" fill="none"/>
<path d="M 1140.0,260.0 L 1200.0,260.0 L 1200.0,320.0 Z" stroke="#f0debb" stroke-width="2.4" opacity="0.6"/>
<path d="M 1100.0,590.0 L 1060.0,660.0 L 1140.0,660.0 Z" stroke="#541734" stroke-width="3.2" opacity="1" fill="#541734" fill-opacity="0.18"/>
<line x1="1100.0" y1="615.0" x2="1100.0" y2="636.0" stroke="#541734" stroke-width="4.4" opacity="1"/>
<circle cx="1100.0" cy="650.0" r="2.6" stroke="none" fill="#541734" fill-opacity="1"/>
</g>
</svg>
